<svg xmlns="http://www.w3.org/2000/svg" xmlns:xlink="http://www.w3.org/1999/xlink" viewBox="0,0,256,256" width="128px" height="128px" fill-rule="nonzero"><g fill="#ffd76c" fill-rule="nonzero" stroke="none" stroke-width="1" stroke-linecap="butt" stroke-linejoin="miter" stroke-miterlimit="10" stroke-dasharray="" stroke-dashoffset="0" font-family="none" font-weight="none" font-size="none" text-anchor="none" style="mix-blend-mode: normal"><g transform="scale(2,2)"><path d="M34.50195,20.62109c-5.79004,-0.04512 -11.30117,2.50313 -16.20117,7.57813c-6.2,6.7 -11.50117,17.90156 -14.70117,31.60156c-2.9,12.8 -3.59922,25.99961 -1.69922,36.09961c2.6,14.5 7.99961,22.5 15.59961,23c5,0.4 8.40078,-3.20078 12.30078,-7.30078c1.3,-1.3 2.59922,-2.69922 4.19922,-4.19922c1.2,-1.1 1.29961,-3.00117 0.09961,-4.20117c-1.1,-1.2 -2.99922,-1.29961 -4.19922,-0.09961c-1.7,1.6 -3.10039,3.10039 -4.40039,4.40039c-3.5,3.7 -5.49961,5.6 -7.59961,5.5c-4.4,-0.3 -8.10117,-6.89961 -10.20117,-18.09961c-4,-22.6 4.70078,-51.70117 15.30078,-62.70117c4.2,-4.4 8.8,-6.29961 13.5,-5.59961c2.4,0.3 6.50039,2.60078 10.40039,4.80078c5.8,3.3 11.9,6.69922 17,6.69922h0.09961c5.1,-0.1 11.00078,-3.39922 16.80078,-6.69922c3.9,-2.2 7.99844,-4.50078 10.39844,-4.80078c4.8,-0.7 9.3,1.19961 13.5,5.59961c10.6,11 19.30117,40.10156 15.20117,62.60156c-2,11.2 -5.70117,17.79961 -10.20117,18.09961c-2.1,0.2 -4.09961,-1.8 -7.59961,-5.5c-3.5,-3.7 -7.79883,-8.20039 -14.79883,-12.40039c-7.3,-4.4 -16.80078,-5.00039 -21.80078,-4.90039h-3.59961c-4.4,0 -10.99961,0.40117 -17.09961,2.70117c-1.6,0.6 -2.30078,2.29844 -1.80078,3.89844c0.5,1.6 2.30039,2.30078 3.90039,1.80078c5.2,-2 11.00039,-2.30078 14.90039,-2.30078h3.59961c4.4,0 12.59922,0.50156 18.69922,4.10156c6.3,3.7 10.3,7.99844 13.5,11.39844c3.7,3.9 7.00117,7.40039 11.70117,7.40039h0.69922c7.6,-0.5 12.99961,-8.5 15.59961,-23c1.8,-10.2 1.20078,-23.29961 -1.69922,-36.09961c-3.2,-13.7 -8.49961,-25.00078 -15.09961,-31.80078c-5.6,-5.8 -12.00117,-8.29844 -18.70117,-7.39844c-3.5,0.5 -7.9,2.9 -12.5,5.5c-4.9,2.8 -10.59961,5.89844 -14.09961,5.89844c-3.5,0 -9.1,-3.19844 -14,-5.89844c-4.6,-2.6 -9,-5 -12.5,-5.5c-0.8375,-0.1125 -1.6709,-0.17324 -2.49805,-0.17969zM36,46c-9.4,0 -17,7.6 -17,17c0,9.4 7.6,17 17,17c9.4,0 17,-7.6 17,-17c0,-9.4 -7.6,-17 -17,-17zM92,47c-1.7,0 -3,1.3 -3,3v10h-10c-1.7,0 -3,1.3 -3,3c0,1.7 1.3,3 3,3h10v10c0,1.7 1.3,3 3,3c1.7,0 3,-1.3 3,-3v-10h10c1.7,0 3,-1.3 3,-3c0,-1.7 -1.3,-3 -3,-3h-10v-10c0,-1.7 -1.3,-3 -3,-3zM36,52c6.1,0 11,4.9 11,11c0,6.1 -4.9,11 -11,11c-6.1,0 -11,-4.9 -11,-11c0,-6.1 4.9,-11 11,-11z"></path></g></g></svg>