<svg xmlns="http://www.w3.org/2000/svg" xmlns:xlink="http://www.w3.org/1999/xlink" viewBox="0,0,256,256" width="128px" height="128px" fill-rule="nonzero"><g fill="#ffd76c" fill-rule="nonzero" stroke="none" stroke-width="1" stroke-linecap="butt" stroke-linejoin="miter" stroke-miterlimit="10" stroke-dasharray="" stroke-dashoffset="0" font-family="none" font-weight="none" font-size="none" text-anchor="none" style="mix-blend-mode: normal"><g transform="scale(4,4)"><path d="M58.80078,0.25977c-0.58,-0.05 -1.16031,0.16008 -1.57031,0.58008l-5.64062,5.64063c-0.43,-0.11 -0.88008,-0.16016 -1.33008,-0.16016c-1.53,0 -2.96883,0.58969 -4.04883,1.67969l-14.33984,14.33008l-3.72461,-3.72461c-0.377,-0.378 -0.87811,-0.58494 -1.41211,-0.58594h-0.00195c-0.534,0 -1.03606,0.20794 -1.41406,0.58594l-4.24219,4.24219c-0.378,0.378 -0.58594,0.88102 -0.58594,1.41602c0,0.534 0.20794,1.03606 0.58594,1.41406c0.378,0.378 0.58594,0.88006 0.58594,1.41406c0,0.534 -0.20794,1.03606 -0.58594,1.41406l-13.84961,13.84961c-2.729,2.729 -2.729,7.16944 0,9.89844l1.17188,1.17188l-2.55469,2.43555c-0.84,0.801 -1.26311,1.92308 -1.16211,3.08008c0.101,1.157 0.71173,2.18999 1.67773,2.83398l0.05469,0.03711c2.212,1.445 5.00273,1.5308 7.30273,0.2168l0.99219,-0.56641c1.454,-0.831 3.2178,-0.88086 4.7168,-0.13086l2.44336,1.22266c0.98,0.49 2.05781,0.73437 3.13281,0.73437c1.075,0 2.14986,-0.24437 3.13086,-0.73437l2.63281,-1.31641c1.4,-0.7 3.07166,-0.7 4.47266,0l2.44336,1.22266c2.099,1.048 4.56652,0.97745 6.60352,-0.18555l4.21289,-2.40625c0.479,-0.274 0.64509,-0.88428 0.37109,-1.36328c-0.273,-0.48 -0.88428,-0.64805 -1.36328,-0.37305l-4.21094,2.40625c-1.453,0.831 -3.21875,0.88281 -4.71875,0.13281l-2.44336,-1.22266c-1.961,-0.98 -4.30072,-0.98 -6.26172,0l-2.63281,1.31641c-1.4,0.7 -3.07166,0.7 -4.47266,0l-2.44531,-1.22266c-2.099,-1.05 -4.56752,-0.98041 -6.60352,0.18359l-0.99219,0.56836c-1.657,0.946 -3.66891,0.87436 -5.25391,-0.18164l-0.02148,-0.01562c-0.445,-0.306 -0.72744,-0.78813 -0.77344,-1.32812c-0.048,-0.547 0.15178,-1.07998 0.55078,-1.45898l2.58984,-2.46875l0.24219,0.24023c1.322,1.322 3.07922,2.05078 4.94922,2.05078c1.87,0 3.62527,-0.72878 4.94727,-2.05078l13.85156,-13.84766c0.778,-0.779 2.04812,-0.78095 2.82813,-0.00195v0.00195h0.00195c0.377,0.378 0.87716,0.58494 1.41016,0.58594h0.00195c0.534,0 1.03606,-0.20794 1.41406,-0.58594l4.24219,-4.24414c0.378,-0.378 0.58594,-0.88006 0.58594,-1.41406c0,-0.535 -0.20794,-1.03706 -0.58594,-1.41406l-3.72656,-3.72656l14.33203,-14.33594c1.11,-1.12 1.66992,-2.57883 1.66992,-4.04883c0,-0.44 -0.05016,-0.89031 -0.16016,-1.32031l6.85938,-6.84961c0.55,-0.56 0.73094,-1.37133 0.46094,-2.11133c-0.27,-0.74 -0.9307,-1.23883 -1.7207,-1.29883zM58.64063,2.25l2.61914,0.21094l-6.31055,6.31836c-0.18,-0.28 -0.39867,-0.5393 -0.63867,-0.7793c-0.24,-0.24 -0.50148,-0.46039 -0.77148,-0.65039zM50.24023,8.33984c0.94,0 1.90016,0.35031 2.66016,1.07031c0.83,0.84 1.19055,1.97055 1.06055,3.06055c-0.09,0.81 -0.45055,1.59875 -1.06055,2.21875l-14.33984,14.33008l-0.77734,-0.77734l-4.49414,-4.50195l14.33008,-14.33008c0.61,-0.61 1.40047,-0.96078 2.23047,-1.05078c0.13,-0.01 0.26062,-0.01953 0.39063,-0.01953zM26.73242,20.01758l15.55664,15.55859l-4.24219,4.24219l-11.31445,-11.31445c-0.391,-0.391 -1.02306,-0.391 -1.41406,0c-0.391,0.391 -0.391,1.02306 0,1.41406l8.87891,8.87891c-0.661,0.174 -1.29059,0.50348 -1.80859,1.02148l-13.84961,13.84961c-0.944,0.944 -2.1982,1.46289 -3.5332,1.46289c-1.335,0 -2.59116,-0.51889 -3.53516,-1.46289l-2.83008,-2.82812c-1.949,-1.95 -1.949,-5.12327 0,-7.07227l13.84961,-13.84961c0.756,-0.755 1.17188,-1.76012 1.17188,-2.82812c0,-1.068 -0.41587,-2.07212 -1.17187,-2.82812zM28.43945,35.69531c-0.25575,0 -0.51153,0.09747 -0.70703,0.29297c-0.391,0.391 -0.391,1.02406 0,1.41406l1.41406,1.41602c0.195,0.195 0.45103,0.29297 0.70703,0.29297c0.256,0 0.51203,-0.09797 0.70703,-0.29297c0.391,-0.391 0.391,-1.02406 0,-1.41406l-1.41406,-1.41602c-0.1955,-0.1955 -0.45128,-0.29297 -0.70703,-0.29297zM24.9043,39.23242c-0.25587,0 -0.51153,0.09797 -0.70703,0.29297c-0.391,0.391 -0.391,1.02306 0,1.41406l1.41406,1.41406c0.195,0.195 0.45103,0.29297 0.70703,0.29297c0.256,0 0.51203,-0.09797 0.70703,-0.29297c0.391,-0.391 0.391,-1.02306 0,-1.41406l-1.41406,-1.41406c-0.195,-0.195 -0.45116,-0.29297 -0.70703,-0.29297zM21.36914,42.76758c-0.25575,0 -0.51153,0.09747 -0.70703,0.29297c-0.391,0.391 -0.391,1.02306 0,1.41406l1.41406,1.41406c0.195,0.195 0.45103,0.29297 0.70703,0.29297c0.256,0 0.51203,-0.09797 0.70703,-0.29297c0.391,-0.391 0.391,-1.02306 0,-1.41406l-1.41406,-1.41406c-0.1955,-0.1955 -0.45128,-0.29297 -0.70703,-0.29297zM17.83203,46.30469c-0.25575,0 -0.50958,0.09747 -0.70508,0.29297c-0.391,0.391 -0.391,1.02306 0,1.41406l1.41211,1.41406c0.195,0.195 0.45103,0.29297 0.70703,0.29297c0.256,0 0.51203,-0.09797 0.70703,-0.29297c0.391,-0.391 0.391,-1.02306 0,-1.41406l-1.41406,-1.41406c-0.1955,-0.1955 -0.45128,-0.29297 -0.70703,-0.29297zM14.29883,49.83789c-0.25575,0 -0.51153,0.09942 -0.70703,0.29492c-0.391,0.39 -0.391,1.02306 0,1.41406l1.41406,1.41406c0.195,0.195 0.45103,0.29297 0.70703,0.29297c0.256,0 0.51203,-0.09797 0.70703,-0.29297c0.391,-0.39 0.391,-1.02306 0,-1.41406l-1.41406,-1.41406c-0.1955,-0.1955 -0.45128,-0.29492 -0.70703,-0.29492zM56.30859,52.94141c-0.12866,0.01833 -0.2565,0.06156 -0.375,0.13281l-3.66797,2.20117c-0.474,0.284 -0.6258,0.89709 -0.3418,1.37109c0.188,0.312 0.51842,0.48633 0.85742,0.48633c0.175,0 0.35267,-0.04753 0.51367,-0.14453l3.66797,-2.20117c0.474,-0.284 0.62775,-0.89709 0.34375,-1.37109c-0.213,-0.3555 -0.61208,-0.52959 -0.99805,-0.47461z"></path></g></g></svg>